<svg width="34" height="26" viewBox="0 0 34 26" fill="none" xmlns="http://www.w3.org/2000/svg">
<path d="M0 25.6979L16.2008 0H26.2565V3.57536L12.2903 25.6979" fill="#FBBC04"/>
<path d="M26.2564 25.6979H16.2007V0H26.2564V25.6979Z" fill="#1A73E8"/>
<path d="M33.5188 18.4353C33.5188 22.4464 30.2675 25.6977 26.2563 25.6977V11.1729C30.2675 11.1729 33.5188 14.4242 33.5188 18.4353Z" fill="#34A853"/>
<path d="M26.2566 25.6977C22.2455 25.6977 18.9941 22.4464 18.9941 18.4353C18.9941 14.4242 22.2455 11.1729 26.2566 11.1729V25.6977Z" fill="#0D652D"/>
<path d="M31.8428 5.5865C31.8428 8.67136 29.3423 11.173 26.2563 11.173V0C29.3423 0 31.8428 2.50163 31.8428 5.5865Z" fill="#1A73E8"/>
<path d="M26.2564 11.173C23.1704 11.173 20.6699 8.67136 20.6699 5.5865C20.6699 2.50163 23.1704 0 26.2564 0V11.173Z" fill="#174EA6"/>
<path d="M0.558594 5.02785C0.558594 2.25136 2.80995 0 5.58644 0C8.36293 0 10.6143 2.25136 10.6143 5.02785C10.6143 7.80434 8.36293 10.0557 5.58644 10.0557C2.80995 10.0557 0.558594 7.80434 0.558594 5.02785Z" fill="#EA4335"/>
</svg>
